<svg xmlns="http://www.w3.org/2000/svg" viewBox="0 0 800 500" width="800" height="500">
  <defs>
    <linearGradient id="skyE" x1="0%" y1="0%" x2="0%" y2="100%">
      <stop offset="0%" style="stop-color:#5590b0"/><stop offset="100%" style="stop-color:#90bcd0"/>
    </linearGradient>
  </defs>
  <rect width="800" height="500" fill="url(#skyE)"/>
  <!-- Sierra al fondo -->
  <polygon points="0,250 120,160 280,200 440,140 600,180 760,150 800,170 800,500 0,500" fill="#4a7a4a" opacity="0.7"/>
  <!-- Ladera con pinos -->
  <polygon points="0,320 100,260 250,285 400,255 550,275 700,255 800,270 800,500 0,500" fill="#2d4a2d"/>
  <!-- Pueblo en ladera -->
  <g fill="white">
    <rect x="320" y="295" width="35" height="30"/><polygon points="316,295 358,295 337,278" fill="#c8922a"/>
    <rect x="360" y="290" width="40" height="35"/><polygon points="356,290 403,290 380,272" fill="#a07030"/>
    <rect x="405" y="298" width="32" height="27"/><polygon points="401,298 440,298 421,282" fill="#c8922a"/>
    <rect x="442" y="293" width="38" height="32"/><polygon points="438,293 483,293 461,275" fill="#8b5e3c"/>
    <rect x="285" y="300" width="30" height="25"/><polygon points="281,300 318,300 300,285" fill="#c8922a"/>
    <!-- Torre iglesia -->
    <rect x="248" y="272" width="30" height="55" fill="white"/>
    <polygon points="243,272 282,272 263,255" fill="#8b5e3c"/>
    <rect x="260" y="255" width="6" height="20" fill="white"/>
    <rect x="254" y="258" width="18" height="5" fill="white"/>
  </g>
  <!-- Camino -->
  <path d="M200,450 Q350,400 500,420 Q620,438 780,430" stroke="#d4c4a0" stroke-width="8" fill="none" opacity="0.7"/>
  <!-- Olivos/arboles -->
  <g fill="#3a6a2a" opacity="0.8">
    <ellipse cx="150" cy="380" rx="25" ry="18"/><ellipse cx="180" cy="370" rx="20" ry="14"/>
    <ellipse cx="600" cy="375" rx="28" ry="20"/><ellipse cx="640" cy="365" rx="22" ry="16"/>
  </g>
  <text x="400" y="465" font-family="Georgia,serif" font-size="19" fill="white" text-anchor="middle" opacity="0.9">Santiago de la Espada · Sede municipal · Santiago-Pontones</text>
  <text x="400" y="488" font-family="Georgia,serif" font-size="13" fill="rgba(255,255,255,0.65)" text-anchor="middle">Sierra de Segura · Jaén · Andalucía</text>
</svg>